<svg width="240" height="155" viewBox="0 0 240 155" fill="none" xmlns="http://www.w3.org/2000/svg">
<path d="M129.038 49.9977C127.163 49.9376 125.574 51.2439 125.511 52.9383L125.087 59.5611L123.284 44.7927C123.065 43.1212 121.364 41.9897 119.501 42.2556C118.122 42.455 117.033 43.3827 116.664 44.5189C116.125 43.2603 114.667 42.4961 113.1 42.7107C111.237 42.9766 109.927 44.5435 110.145 46.2151L110.173 46.3709C109.477 45.8716 108.556 45.6359 107.588 45.7691C105.725 46.035 104.415 47.6019 104.634 49.2734L104.688 49.7977C104.006 49.3409 103.113 49.1192 102.174 49.2663C100.311 49.5322 99.0013 51.0992 99.2199 52.7707L101.806 73.8076L131.488 65.9886L132.275 53.1404C132.345 51.4672 130.891 50.065 129.038 49.9977Z" fill="#FCAEAE"/>
<path d="M157.788 135.308C157.788 135.308 124.843 155.338 114.791 139.093C104.74 122.848 97.5932 75.5618 97.5932 75.5618L137.216 64.6023C137.216 64.6023 133.671 103.423 138.993 106.533C144.322 109.663 162.205 98.6728 164.964 96.1761C167.73 93.7006 157.788 135.308 157.788 135.308Z" stroke="black" stroke-width="2.22578" stroke-miterlimit="10" stroke-linecap="round" stroke-linejoin="round"/>
<path d="M177.762 74.1052C186.747 71.1175 191.661 61.5688 188.738 52.7776C185.815 43.9864 176.161 39.2818 167.176 42.2695C158.191 45.2573 153.276 54.806 156.199 63.5972C159.123 72.3883 168.776 77.0929 177.762 74.1052Z" fill="black"/>
<path d="M181.783 84.0145C157.812 91.9849 144.714 117.436 152.512 140.888L239.282 112.036C231.484 88.5837 205.753 76.044 181.783 84.0145Z" fill="#7B5FC2"/>
<path d="M205.077 82.4189C197.571 81.0019 189.583 81.3952 181.774 83.9919C173.574 86.7184 166.636 91.5004 161.376 97.5627C168.253 103.172 177.896 105.222 187.094 102.164C196.537 99.0472 203.1 91.3259 205.077 82.4189Z" fill="#FCAEAE"/>
<path d="M175.244 78.2693C182.288 75.9269 186.141 68.4407 183.849 61.5484C181.557 54.6562 173.989 50.9677 166.944 53.3101C159.9 55.6525 156.047 63.1387 158.339 70.031C160.631 76.9233 168.199 80.6117 175.244 78.2693Z" fill="#FCAEAE"/>
<path d="M190.206 32.4749C192.822 23.52 190.037 14.9343 183.984 13.2982C177.931 11.6621 170.903 17.5951 168.286 26.55C165.67 35.5049 168.455 44.0906 174.508 45.7267C180.561 47.3629 187.589 41.4298 190.206 32.4749Z" fill="black"/>
<path d="M164.698 63.6243C166.426 65.1241 168.903 65.6911 171.267 64.9049C173.632 64.1186 175.276 62.1812 175.761 59.9456C174.034 58.4458 171.557 57.8788 169.192 58.6651C166.828 59.4513 165.184 61.3887 164.698 63.6243Z" fill="white"/>
<path d="M171.352 64.8768C172.526 64.4864 173.013 62.7731 172.44 61.05C171.868 59.3269 170.451 58.2466 169.277 58.637C168.103 59.0274 167.616 60.7407 168.189 62.4638C168.762 64.1868 170.178 65.2672 171.352 64.8768Z" fill="black"/>
<path d="M160.415 63.7972L158.21 73.3931L164.8 71.7674" stroke="black" stroke-width="2.22578" stroke-miterlimit="10" stroke-linecap="round" stroke-linejoin="round"/>
<path d="M169.667 75.6909C169.667 75.6909 177.943 75.3668 175.162 68.961" stroke="black" stroke-width="2.22578" stroke-miterlimit="10" stroke-linecap="round" stroke-linejoin="round"/>
<path d="M205.52 103.241C205.52 103.241 210.532 108.245 214.193 122.513" stroke="black" stroke-width="2.22578" stroke-miterlimit="10" stroke-linecap="round" stroke-linejoin="round"/>
<path d="M171.857 111.82L172.458 119.073L187.237 117.703L186.636 110.45L171.857 111.82Z" fill="#FFD301"/>
<path d="M171.848 111.807L172.148 115.422L186.927 114.052L186.627 110.436L171.848 111.807Z" fill="#81D6E3"/>
<path d="M27.1698 51.6913C27.1698 51.6913 0.249649 41.5542 0.382091 64.7516C0.514534 87.9491 51.0905 84.4494 51.0905 84.4494C51.0905 84.4494 73.243 52.9501 58.172 34.8569C43.1885 16.7772 21.9567 40.0975 27.1698 51.6913Z" fill="#FA7428"/>
</svg>
